{"title":"The.Haunted.S02E01.HDTV.XviD-tNe.avi","uid":6289729,"size":367204352,"categoryP":"video","categoryS":"tv_shows","magnet":"?xt=urn:btih:c16b88d504e0087d051ee5e0da56e7526d28a819&amp;dn=The.Haunted.S02E01.HDTV.XviD-tNe.avi&amp;tr=udp%3A%2F%2Ftracker.openbittorrent.com%3A80&amp;tr=udp%3A%2F%2Fopen.demonii.com%3A1337&amp;tr=udp%3A%2F%2Ftracker.coppersurfer.tk%3A6969&amp;tr=udp%3A%2F%2Fexodus.desync.com%3A6969","seeders":1,"leechers":0,"uploader":"trialNerror","files":1,"time":1301756166,"description":"Format                           : AVI\nFormat/Info                      : Audio Video Interleave\nFile size                        : 350 MiB\nDuration                         : 42mn 15s\nOverall bit rate                 : 1 159 Kbps\nWriting application              : VirtualDubMod 1.5.10.2 (build 2542/release)\nWriting library                  : VirtualDubMod build 2542/release\n\nVideo\nID                               : 0\nFormat                           : MPEG-4 Visual\nFormat profile                   : Advanced Simple@L5\nFormat settings, BVOP            : Yes\nFormat settings, QPel            : No\nFormat settings, GMC             : No warppoints\nFormat settings, Matrix          : Default (H.263)\nCodec ID                         : XVID\nCodec ID/Hint                    : XviD\nDuration                         : 42mn 15s\nBit rate                         : 1 019 Kbps\nWidth                            : 624 pixels\nHeight                           : 352 pixels\nDisplay aspect ratio             : 16:9\nFrame rate                       : 29.970 fps\nColor space                      : YUV\nChroma subsampling               : 4:2:0\nBit depth                        : 8 bits\nScan type                        : Progressive\nBits/(Pixel*Frame)               : 0.155\nStream size                      : 308 MiB (88%)\nWriting library                  : XviD 58\n\nAudio\nID                               : 1\nFormat                           : MPEG Audio\nFormat version                   : Version 1\nFormat profile                   : Layer 3\nMode                             : Joint stereo\nMode extension                   : MS Stereo\nCodec ID                         : 55\nCodec ID/Hint                    : MP3\nDuration                         : 42mn 15s\nBit rate mode                    : Constant\nBit rate                         : 128 Kbps\nChannel(s)                       : 2 channels\nSampling rate                    : 48.0 KHz\nStream size                      : 38.7 MiB (11%)\nAlignment                        : Aligned on interleaves\nInterleave, duration             : 33 ms (1.00 video frame)\nInterleave, preload duration     : 504 ms\nWriting library                  : LAME3.99a\nEncoding settings                : -m j -V 4 -q 2 -lowpass 17 -b 128","torrent":{"xt":"urn:btih:c16b88d504e0087d051ee5e0da56e7526d28a819","amp;dn":"The.Haunted.S02E01.HDTV.XviD-tNe.avi","amp;tr":["udp%3A%2F%2Ftracker.openbittorrent.com%3A80","udp%3A%2F%2Fopen.demonii.com%3A1337","udp%3A%2F%2Ftracker.coppersurfer.tk%3A6969","udp%3A%2F%2Fexodus.desync.com%3A6969"],"infoHash":"c16b88d504e0087d051ee5e0da56e7526d28a819","infoHashBuffer":{"type":"Buffer","data":[193,107,136,213,4,224,8,125,5,30,229,224,218,86,231,82,109,40,168,25]},"announce":[],"urlList":[]}}